<svg width="737" height="240" viewBox="0 0 737 240" fill="none" xmlns="http://www.w3.org/2000/svg">
<path d="M118.067 240C94.0251 240 74.6533 230 51.1867 230C20.68 230 13.1413 236.5 0 236.5L3.5197 0H737V240C713.533 240 682.44 230 656.627 230C636.577 230 616.26 240 587.4 240C558.067 240 540.578 230 515.827 230C484.147 230 467.72 240 441.907 240C417.155 240 390.503 230 365.64 230C329.267 230 314.013 240 277.64 240C241.267 240 222.493 230 197.853 230C165 230 148.573 240 118.067 240Z" fill="url(#paint0_linear_49_8)"/>
<defs>
<linearGradient id="paint0_linear_49_8" x1="386.803" y1="1.18727e-06" x2="390.098" y2="240.005" gradientUnits="userSpaceOnUse">
<stop stop-color="white"/>
<stop offset="0.5" stop-color="#C4DFFF"/>
<stop offset="0.785" stop-color="#A7CFFF"/>
<stop offset="1" stop-color="#A7CFFF"/>
</linearGradient>
</defs>
</svg>
