<svg width="456" height="1015" viewBox="0 0 456 1015" fill="none" xmlns="http://www.w3.org/2000/svg">
<path d="M130.537 147.435C137.892 141.184 182.622 135.843 204.068 133.954C230.303 173.394 267.912 167.841 287.489 129.991L350.101 131.329C381.123 139.774 382.75 157.786 396.947 172.736C408.304 184.696 438.461 217.749 452.12 232.781C459.999 235.696 451.438 365.143 449.069 385.079C446.701 405.015 453.915 448.498 453.543 456.779C453.172 465.061 434.524 482.208 431.546 484.305C428.568 486.403 426.731 478.786 419.956 475.539C413.18 472.292 413.685 429.609 413.61 426.989C413.536 424.368 402.594 445.443 396.563 447.017C390.533 448.592 403.013 424.652 404.837 414.011C406.66 403.37 421.052 389.667 423.186 386.382C425.32 383.096 425.156 359.598 418.205 335.979C412.645 317.084 411.069 272.689 410.976 252.854C385.984 242.835 354.539 212.412 348.781 209.339C343.023 206.266 324.502 256.294 319.962 267.512C316.33 276.487 306.353 341.852 301.819 373.412C302.65 377.727 298.384 392.644 304.54 415.604C320.515 475.193 279.329 703.366 270.67 726.396C263.835 744.576 266.796 777.196 268.153 792.141L268.207 792.736C257.618 875.938 226.031 925.813 222.398 943.967C219.555 958.169 220.29 988.312 220.689 1004.66L220.716 1005.75C220.97 1016.22 178.326 1016.85 177.771 1008.82C176.566 991.402 191.231 973.051 190.049 949.378C189.793 944.243 196.463 936.395 200.901 886.041C202.905 863.299 199.926 809.202 202.443 794.508C205.395 777.28 209.559 731.574 207.127 724.377C204.694 717.179 214.78 566.608 216.864 554.447C218.947 542.286 207.569 544.51 202.978 546.853C198.387 549.196 124.196 667.4 119.929 673.97C115.661 680.541 121.158 685.134 133.358 711.738C145.558 738.342 132.75 846.722 131.014 856.856C129.278 866.99 134.093 872.509 140.051 889.698C146.008 906.888 133.017 909.356 124.952 910.582C116.886 911.808 81.2395 936.474 77.4058 940.511C73.572 944.548 65.7045 938.506 56.5712 930.683C49.2646 924.424 60.971 919.266 67.7375 917.47C99.6373 896.335 103.556 870.406 103.505 861.531C103.465 854.431 83.2058 779.296 73.0812 742.616C75.2636 726.821 53.6053 666.78 50.0178 651.04C46.4303 635.3 161.773 451.126 169.061 365.793C176.349 280.461 138.833 218.225 137.393 217.457C136.242 216.842 87.9053 266.873 63.881 291.965C64.0809 306.082 47.6617 404.976 46.2727 413.083C44.8837 421.19 50.9282 437.873 51.9336 441.174C52.939 444.476 52.1456 452.164 47.6799 466.003C43.2142 479.842 36.2411 483.863 32.6798 483.253C29.1186 482.642 40.4322 453.286 40.1092 449.058C39.7862 444.83 26.0398 466.989 18.2975 472.443C10.5553 477.897 11.2033 507.738 4.05661 512.773C-3.09011 517.807 1.83182 473.795 0.230866 470.913C-1.37008 468.031 17.8715 429.08 23.7888 412.882C29.706 396.684 19.0121 287.929 20.1527 278.214C21.2934 268.5 121.343 155.248 130.537 147.435Z" fill="#F9E2CC"/>
<path d="M193.107 94.0006C192.71 91.4289 193.677 78.4509 194.209 72.2833C203.845 16.0398 298.1 19.1488 297.56 92.5977C298.875 88.9981 306.395 89.9384 307.475 95.861C309.665 107.876 298.77 116.102 291.433 119.191C290.573 122.173 286.665 132.352 283.718 139.775C280.033 149.054 255.169 171.916 241.433 169.562C226.864 167.066 208.275 143.019 205.83 138.949C203.875 135.693 201.862 126.447 200.716 122.948C184.275 118.044 182.908 98.5121 184.955 95.733C190.464 88.2544 193.935 99.3578 193.107 94.0006Z" fill="#F9E2CC"/>
<path d="M189.633 92.8841C187.341 85.8848 182.657 71.2434 182.26 68.6718C184.457 71.1344 186.566 74.1037 188.601 74.4523C186.723 70.1318 185.175 56.5491 187.16 52.2993C187.763 54.2788 189.329 59.1095 190.478 62.2542C186.726 51.1956 191.488 40.7826 189.591 38.1117C192.101 39.7589 192.185 47.4229 194.617 54.6201C196.875 41.4459 196.911 32.0638 197.692 27.5035C199.532 31.0088 202.847 38.3507 203.191 42.8525C203.533 35.6333 205.499 21.2467 205.683 23.6568C206.49 34.2266 212.854 12.3676 215.658 11.2833C215.642 15.4531 216.763 23.7818 221.379 23.7381C221.06 18.4678 221.775 9.20188 221.787 6.07452C223.562 7.94326 225.838 11.7756 226.85 13.2009C227.967 9.74112 227.683 4.05957 229.182 2.64731C229.667 8.9892 231.38 22.2178 234.359 24.3971C236.186 19.8422 240.199 10.4807 241.628 9.47381C240.673 15.0475 243.466 17.0906 243.453 20.2179C247.573 15.5341 253.902 -0.419638 256.344 -0.00126355C255.157 6.92364 253.207 21.3673 254.894 23.7428C257.992 19.927 263.986 7.3582 264.472 4.52068C266.159 6.89613 267.356 9.08307 267.078 10.7045C268.472 8.68314 271.415 3.72832 272.04 0.0800764C272.542 9.38043 273.356 28.4704 272.602 30.4275C276.179 26.8678 281.386 18.8931 283.768 17.2149C283.305 19.9173 283.91 28.6096 283.633 30.2311C285.882 26.27 290.655 17.9775 291.746 16.4955C293.166 22.476 296.002 35.0624 295.992 37.5643C297.27 36.2185 299.895 33.1216 300.173 31.5001C301.013 33.7303 302.417 39.1866 301.316 43.1705C301.853 43.0887 304.542 42.6801 306.415 40.9147C306.143 45.5622 301.557 50.9311 300.932 54.5794C303.65 54.0018 307.645 52.0784 309.692 49.2997C309.018 55.2693 307.5 67.5965 306.815 69.1482C308.403 68.0294 312.14 65.575 314.384 64.7076C313.503 65.7736 311.771 68.9541 311.89 73.1471C313.355 74.7889 317.916 72.8234 319.286 69.7199C319.811 72.7656 316.296 83.4989 311.333 85.5694C311.726 86.3322 316.155 84.9351 318.468 83.6623C317.351 87.1221 307.388 96.1251 307.053 95.2676C305.961 92.4726 303.008 88.3156 297.648 92.0915C295.125 93.5717 294.745 105.364 296.533 116.936C291.168 114.626 275.926 100.888 274.754 88.1692C272.634 91.6732 275.02 106.616 278.852 110.489C278.999 110.629 279.132 110.748 279.248 110.845C279.114 110.74 278.982 110.621 278.852 110.489C275.686 107.503 265.558 95.2744 265.832 91.3349C264.407 93.7691 269.343 112.347 270.917 115.421C270.987 115.544 271.043 115.64 271.083 115.705C271.033 115.635 270.978 115.539 270.917 115.421C269.323 112.621 260.395 95.5649 260.993 92.0706C258.347 96.3113 251.337 118.477 253.154 122.543C248.898 118.859 242.58 101.121 243.076 95.7813C239.044 99.9585 234.693 117.816 235.746 126.341C233.106 121.369 223.873 102.714 226.622 94.0056C223.976 98.2463 219.388 113.003 219.577 116.791C219.138 113.239 216.746 98.468 218.731 94.2183C216.055 98.6279 212.742 111.447 212.801 113.544C212.478 109.316 209.03 97.0419 210.33 94.3438C207.853 98.6136 206.574 104.653 206.286 108.777C203.772 106.128 199.273 102.537 198.537 98.2814C198.569 103.568 198.713 110.299 199.08 114.391C199.621 117.03 199.856 118.538 199.55 117.532C199.363 116.92 199.208 115.815 199.08 114.391C197.848 108.37 195.03 96.4614 193.443 95.1015C191.159 93.1456 190.65 93.0585 189.633 92.8841Z" fill="#252221"/>
<path d="M221.513 120.774C226.665 122.491 234.129 127.629 233.277 128.526C231.999 129.872 226.079 124.685 222.183 122.975C218.802 121.49 208.935 118.792 204.215 117.81C205.741 118.072 215.073 118.627 221.513 120.774Z" fill="#282424"/>
<path d="M266.741 119.655C265.609 120.156 252.795 127.698 255.165 129.147C256.723 129.831 262.332 126.028 265.538 123.622C267.942 121.817 277.441 117.316 282.797 114.583C280.675 114.741 268.441 118.903 266.741 119.655Z" fill="#282424"/>
<path d="M216.737 124.01C226.921 125.875 232.133 131.655 233.339 134.274C234.239 137.88 223.747 135.239 217.753 132.507C211.65 129.727 204.007 121.678 216.737 124.01Z" fill="#2E2A2A"/>
<path d="M270.538 125.001C260.89 127.52 257.545 133.425 256.573 136.04C255.966 139.587 265.628 136.627 271.178 133.327C276.458 130.187 282.599 121.851 270.538 125.001Z" fill="#2E2A2A"/>
<path d="M302.293 404.266C301.746 392.176 305.96 373.689 301.732 373.919C257.856 376.312 186.52 370.871 168.714 367.82C167.188 367.559 163.455 389.347 161.545 400.494C183.72 414.725 302.389 406.369 302.293 404.266Z" fill="#343434"/>
<path d="M77.6499 636.476C69.4678 632.993 59.1034 634.69 54.5705 636.695C50.8234 640.226 49.3188 652.937 52.4382 661.365C59.2399 679.742 68.4502 711.571 72.5726 742.529C97.222 757.601 126.668 737.541 138.31 725.627C138.359 713.117 117.944 682.498 120.375 668.31C116.59 659.838 87.8993 640.84 77.6499 636.476Z" fill="#343434"/>
<path d="M273.896 725.906C245.454 708.516 217.709 708.457 207.175 711.868C206.22 717.441 207.054 743.141 206.769 750.916C206.541 757.136 204.377 777.106 202.38 788.761C224.836 809.298 254.339 802.357 268.79 795.444C268.504 781.834 270.489 743.752 273.896 725.906Z" fill="#343434"/>
<path d="M304.415 404.108C166.261 409.647 167.824 400.527 162.227 399.568C160.53 399.694 152.836 414.649 153.667 418.964C152.129 421.83 140.484 441.915 134.537 451.154C131.063 454.314 129.446 458.453 129.153 461.184C128.805 463.211 109.241 497.934 106.436 499.018C102.774 500.435 98.8436 509.714 98.5832 511.234C98.3228 512.754 94.7252 521.526 92.6034 521.684C90.9059 521.81 89.0508 526.117 88.3355 528.255C87.3826 528.926 86.5037 533.852 86.1027 535.174C83.9982 535.231 81.1854 541.46 80.1228 545.624C74.7675 555.486 61.0173 580.113 48.859 599.727C36.7007 619.342 39.8771 618.53 39.6046 623.177C38.9101 627.231 35.0851 636.312 33.4269 640.896C66.9382 628.695 109.363 656.165 123.328 672.467C126.594 670.523 133.953 660.378 137.224 655.549C140.837 651.578 177.653 593.802 195.609 565.41C198.934 561.285 205.77 548.896 209.331 549.506C211.875 549.942 214.667 551.985 215.25 554.692C215.834 557.4 206.471 608.997 204.226 619.043C201.981 629.09 191.783 654.987 186.363 674.399C182.026 689.929 183.077 697.655 184.144 699.576C182.636 703.49 182.111 713.484 182.036 717.992C221.88 700.617 272.663 722.913 289.805 736.977C293.616 734.292 295.793 724.442 296.404 719.852C297.272 714.785 303.908 688.279 307.395 686.268C310.881 684.258 316.011 608.465 316.817 597.65C317.461 588.998 321.887 551.751 324.02 534.209C327.969 513.606 325.788 508.608 324.204 508.684C322.724 505.092 323.123 495.633 323.507 491.353C326.316 484.74 320.527 472.065 319.088 471.297C318.552 469.536 312.881 438.244 310.112 422.818C310.27 417.003 306.38 407.922 304.415 404.108Z" fill="#3D8144"/>
<path d="M157.364 406.558C156.731 409.232 154.279 415.632 160.206 417.477C165.003 418.969 187.601 425.301 210.845 429.248C212.282 426.743 213.7 424.35 214.828 422.662C215.168 422.72 216.355 422.924 217.794 423.692C218.555 424.098 216.825 427.005 214.893 429.909C223.311 431.228 231.683 432.181 239.197 432.423C238.222 429.302 237.351 426.77 236.878 425.397C238.094 425.431 240.544 425.399 240.613 424.994C240.644 424.813 241.773 427.935 243.111 432.484C244.515 432.48 245.881 432.447 247.203 432.381C272.842 431.115 307.059 422.295 308.586 422.556C309.122 422.648 303.441 426.57 291.565 430.206C293.906 440.994 299.435 463.132 302.82 465.381C307.052 468.192 318.741 473.324 320.18 474.092C322.476 480.049 326.441 491.959 323.929 491.946C320.79 491.93 296.047 483.519 296.655 479.972C297.262 476.425 283.552 434.18 283.878 432.278C273.751 434.662 260.52 436.499 244.192 436.327C246.328 444.295 248.413 454.504 247.181 460.021C244.936 470.068 242.368 475.887 240.631 486.021C239.404 493.187 239.79 506.218 237.68 503.248C234.608 498.925 240.94 471.991 243.793 458.397C244.694 453.139 242.544 443.822 240.35 436.25C231.808 436.001 222.465 435.203 212.324 433.665C211.773 434.464 211.317 435.133 211.045 435.575C209.697 437.765 202.758 450.324 201.207 456.317C199.657 462.31 196.197 479.451 198.605 492.903C199.872 499.976 197.141 498.39 196.732 494.668C191.051 471.58 199.995 448.112 205.176 439.264C206.054 437.765 207.305 435.516 208.672 433.084C200.034 431.648 190.837 429.679 181.082 427.064C166.957 453.842 161.712 449.066 136.949 458.469C128.76 471.629 113.398 498.125 117.468 498.822C122.555 499.693 139.864 499.53 189.637 529.963C165.444 518.342 114.745 496.373 105.494 501.465L102.504 506.69C103.542 508.78 108.944 513.113 122.246 513.723C114.636 514.332 99.1096 515.497 97.8886 515.287C96.5238 517.14 94.4048 520.949 96.8468 521.368C99.8993 521.891 117.445 526.461 143.502 524.145C127.827 525.98 95.3214 529.66 90.7055 529.704C88.5178 532.285 84.7701 537.449 87.2816 537.462C89.793 537.475 93.0844 536.196 94.4162 535.555C91.0992 537.595 84.2768 542.163 83.5225 544.12C82.5797 546.567 46.3414 614.422 45.8206 617.462C49.2741 616.663 61.5046 616.394 82.7978 621.711C69.6241 620.149 42.6938 618.595 40.3616 624.872C37.4464 632.717 35.1388 637.016 37.1738 637.365C39.2088 637.714 78.8024 623.634 123.924 672.047C123.241 672.973 121.41 672.66 120.189 672.45C120.186 671.622 120.198 669.905 120.264 669.657C106.279 657.262 79.8803 639.199 53.801 638.127C52.9473 638.22 51.6797 644.395 51.1341 647.58C45.8431 646.674 36.6159 642.659 32.918 640.808C35.06 635.438 39.3962 624.393 39.6046 623.177C39.865 621.657 38.785 615.735 41.5144 612.03C44.2437 608.325 83.0258 540.906 83.2862 539.386C83.5467 537.866 90.4814 521.842 93.7943 520.845C97.1073 519.848 97.9128 509.033 99.2775 507.18C100.642 505.328 107.032 498.599 107.801 497.166C108.416 496.019 122.234 473.038 129.066 461.691C127.785 459.385 131.923 454.183 133.854 452.08C150.246 448.108 162.629 449.186 176.082 425.681C171.713 424.434 167.236 423.059 162.651 421.547C158.327 420.12 142.428 440.877 138.835 448.543L138.532 449.23C138.62 449.015 138.722 448.786 138.835 448.543L157.364 406.558Z" fill="#144118"/>
<path d="M107.955 545.177C141.119 535.003 190.391 539.828 210.882 543.513C227.323 548.416 321.892 500.707 323.794 504.963C325.134 509.365 327.347 520.906 325.471 531.85C322.742 535.555 318.854 575.572 317.251 595.117C310.696 688.398 308.077 685.342 306.117 687.614C304.157 689.886 296.677 715.205 297.93 720.114C298.933 724.041 293.552 733.446 290.735 737.658C288.968 738.189 277.442 737.814 271.899 737.56L273.722 726.919C275.827 726.863 285.941 734.055 290.735 737.658L286.429 732.226C292.037 730.057 290.212 719.313 287.259 715.156C284.896 711.83 269.117 703.877 261.522 700.315C269.533 700.019 284.739 708.465 291.341 712.726C296.979 711.606 297.428 696.557 296.947 689.172C271.729 645.63 262.8 611.345 261.488 599.646C267.161 624.61 296.301 680.717 302.493 681.256C308.685 681.795 318.983 542.213 320.521 539.347C322.06 536.481 316.7 540.257 312.034 539.98C308.301 539.757 278.152 547.214 263.543 550.97C267.302 544.312 314.006 534.58 316.55 535.016C319.094 535.452 319.974 527.257 322.455 521.945C324.44 517.695 320.851 513.991 318.808 512.669C316.704 513.674 313.829 514.679 309.922 515.625C293.531 519.598 232.423 546.16 227.323 548.416C222.223 550.671 212.892 550.116 209.927 549.086C207.554 548.263 204.174 552.099 202.78 554.121C174.419 550.931 129.004 557.824 109.842 561.669C113.256 556.412 162.163 547.684 186.189 543.976C168.42 540.097 126.629 543.16 107.955 545.177Z" fill="#144118"/>
<path d="M190.568 662.08C194.339 652.295 204.701 613.214 209.41 594.896C208.281 601.483 196.362 655.771 199.687 651.647C202.347 648.347 224.403 630.672 235.098 622.246C232.865 629.166 204.874 648.884 194.886 664.385C184.899 679.886 186.637 691.137 190.546 689.72C193.434 688.673 217.415 692.605 231.729 695.176C233.194 695.323 234.345 695.52 235.067 695.783C234.032 695.592 232.914 695.389 231.729 695.176C222.191 694.219 199.349 695.401 194.939 694.645C189.851 693.774 183.252 710.898 189.617 710.424C194.709 710.044 204.631 711.431 207.684 711.954C206.406 713.3 206.8 721.191 206.866 725.897C204.424 725.478 188.985 720.225 182.036 717.992C178.14 716.281 183.97 700.59 183.647 696.362C183.324 692.134 185.854 674.312 190.568 662.08Z" fill="#144118"/>
<path d="M191.644 99.4875C191.06 96.7796 187.487 99.2969 187.227 100.817C187.119 99.4076 187.591 97.8863 188.939 96.9374C190.13 96.0989 192.165 96.447 193.43 98.229C194.326 99.4892 198.308 109.497 198.718 113.218C199.975 118.81 202.42 128.871 203.814 133.91C204.178 135.226 204.47 136.199 204.651 136.662C206.18 140.575 227.014 168.135 241.433 169.562C253.277 170.735 275.939 154.612 282.948 141.209C284.253 138.713 286.413 133.378 287.201 130.998C287.303 130.645 287.399 130.309 287.489 129.991C287.455 130.188 287.354 130.538 287.201 130.998C285.287 137.634 281.335 150.01 278.743 153.528C275.331 158.159 266.832 161.919 268.184 163.194C269.537 164.469 314.242 145.006 317.804 145.616C302.848 151.399 272.17 163.772 269.103 167.002C265.269 171.039 265.517 172.647 265.344 173.66C265.17 174.673 262.651 167.983 265.38 164.278C257.299 169.674 238.651 177.849 228.714 167.384C221.301 160.725 206.377 146.763 205.98 144.191C205.483 140.977 165.058 150.741 173.955 153.83C182.852 156.919 222.013 166.758 223.192 169.046C224.371 171.335 227.672 173.465 228.342 175.666C226.626 173.459 222.48 168.924 219.631 168.436C216.07 167.826 148.194 145.244 141.059 147.151C133.925 149.058 91.3312 192.875 85.8722 200.285C80.4132 207.695 30.9212 258.154 32.2496 265.683C33.578 273.213 42.239 271.567 49.3494 275.915C56.4598 280.262 63.1361 287.144 63.8932 288.838C64.6502 290.532 51.2854 279.898 44.92 280.372C38.5546 280.846 25.9227 278.16 26.9159 284.589C27.9091 291.018 26.0499 311.041 26.6717 325.752C27.2935 340.462 27.7437 392.358 28.2545 399.043C28.739 405.385 30.1664 409.28 33.3804 411.917C36.5944 414.554 25.4766 415.257 24.8689 418.804C24.2612 422.351 4.51086 461.215 4.41194 464.849C4.31302 468.483 1.92274 516.058 0.594334 508.529C-0.734074 500.999 0.838579 467.366 1.86819 464.413C2.8978 461.46 21.6491 417.709 22.1637 416.255C28.2545 399.043 21.1844 296.647 19.644 278.128C40.0404 247.72 96.1894 182.859 131.902 145.582C145.208 142.299 178.219 135.367 203.814 133.91L200.716 122.948L196.596 113.376L196.593 113.371C195.75 112.186 194.907 110.999 193.382 110.738C191.856 110.477 193.221 108.624 194.163 106.178C195.106 103.731 192.227 102.195 191.644 99.4875Z" fill="#C4A283" fill-opacity="0.8"/>
<path d="M140.88 215.447C131.131 208.769 114.756 213.057 107.787 216.036C124.979 211.053 131.88 214.954 136.885 217.37C147.78 230.19 157.967 265.489 162.514 281.742C169.464 292.529 169.882 343.681 169.223 367.908C171.258 368.256 199.925 371.081 214.005 372.45C204.644 370.847 202.464 358.303 203.729 352.956C201.011 353.534 199.883 360.121 194.684 366.011C189.486 371.901 172.98 339.865 174.021 333.784C174.855 328.92 164.553 273.746 159.297 246.767C163.272 253.725 167.825 260.5 173.692 265.402C179.785 269.575 196.963 274.257 207.68 274.876C200.731 272.642 177.167 266.519 170.081 255.916C164.961 248.256 153.066 223.793 140.88 215.447Z" fill="#C4A283" fill-opacity="0.8"/>
<path d="M209.371 320.021C212.514 311.866 224.493 297.785 247.265 306.693C239.295 305.328 220.558 306.081 209.371 320.021Z" fill="#C4A283" fill-opacity="0.8"/>
<path d="M430.395 387.096C427.953 386.677 417.012 395.93 411.846 400.608C413.891 398.455 420.316 389.889 423.273 385.875C425.603 362.491 422.6 362.29 418.789 338.687C417.338 329.706 411.326 279.34 410.38 253.273C396.06 248.212 367.784 224.765 350.729 210.195C346.738 206.59 341.969 215.474 340.084 220.367C317.915 270.291 315.458 269.348 301.732 373.919C301.024 373.972 298.88 374.057 295.962 373.974C293.044 373.891 306.726 304.015 313.932 269.087C311.321 270.242 292.511 270.03 281.652 269.639C281.172 269.636 280.73 269.619 280.33 269.589C280.755 269.606 281.197 269.623 281.652 269.639C291.575 269.711 317.48 264.215 319.316 259.056C337.09 209.11 354.881 197.171 361.635 198.502C358.583 197.979 355.171 202.61 354.129 208.691C353.296 213.555 392.763 237.911 412.601 249.481C418.716 248.025 427.88 247.926 431.697 248.059C426.674 248.033 418.834 253.853 415.542 256.766C409.972 270.937 428.495 373.731 427.801 377.785C427.106 381.838 433.448 387.619 430.395 387.096Z" fill="#C4A283" fill-opacity="0.8"/>
<path d="M372.797 142.52C376.589 144.839 390.138 163.572 396.438 172.649C398.96 173.081 415.911 192.605 426.896 205.66C428.578 207.422 429.928 209.014 430.825 210.356C429.645 208.937 428.321 207.352 426.896 205.66C417.953 196.288 399.635 182.116 390.234 175.237C390.184 170.639 378.589 151.51 372.797 142.52Z" fill="#C4A283" fill-opacity="0.8"/>
<path d="M72.9945 743.123C81.7677 748.972 106.858 753.931 137.032 726.972C139.665 748.286 139.2 793.792 133.804 837.514C131.96 846.239 129.149 865.299 132.654 871.741C137.034 879.793 148.738 903.183 135.908 907.765C125.726 911.402 122.562 910.656 111.996 916.354C108.284 918.618 104.718 920.744 101.997 922.297C106 919.753 109.248 917.836 111.996 916.354C120.428 911.211 129.611 905.351 131.341 903.853C136.875 899.064 136.962 898.557 127.207 876.023C126.689 870.893 129.29 863.862 121.659 862.555C117.282 861.805 124.1 823.855 126.183 811.694C132.448 775.129 122.654 758.933 110.444 756.841C96.3728 754.43 77.7973 751.769 72.9945 743.123Z" fill="#C4A283" fill-opacity="0.8"/>
<path d="M268.964 794.431L265.145 816.725L250.391 814.198C239.707 812.367 222.623 818.321 217.758 827.383C212.374 837.414 203.249 915.13 204.391 926.8C204.66 929.547 210.051 940.635 213.153 942.905C209.852 940.775 202.568 937.441 196.873 940.116C192.317 942.256 192.502 951.363 193.165 955.649C189.851 970.103 182.976 986.589 179.953 993.026C188.017 970.415 190.274 957.241 189.615 951.912C189.3 949.36 190.496 943.718 193.572 937.986C196.649 932.254 202.14 872.692 201.829 865.337C201.577 859.353 200.422 812.417 202.38 788.761C228.628 811.617 257.566 801.866 268.964 794.431Z" fill="#C4A283" fill-opacity="0.8"/>
<path d="M232.468 373.406C218.8 373.023 185.364 369.627 168.714 367.82C167.761 368.492 163.653 389.207 161.719 399.481C170.385 405.138 200.272 405.738 214.132 405.331C213.608 405.241 212.364 405.072 210.645 404.839C204.019 403.94 190.336 402.082 183.607 400.101C177.833 398.401 171.322 395.389 169.299 391.913C167.979 389.643 169.485 387.772 175.851 387.298C179.344 387.038 231.911 386.123 258.155 386.795L257.137 386.62C256.084 386.44 243.357 385.691 228.447 384.814C207.361 383.574 181.907 382.077 178.927 381.566C173.84 380.694 172.499 376.292 174.795 375.121C176.488 374.257 211.633 373.714 232.468 373.406Z" fill="#181818"/>
<path d="M232.468 373.406C234.697 373.468 236.4 373.45 237.419 373.332C236.386 373.348 235.293 373.364 234.149 373.381L232.468 373.406Z" fill="#181818"/>
<path d="M53.801 638.127C69.7169 639.985 94.2407 646.62 120.114 669.83C120.462 674.931 123.441 687.09 127.984 697.257C133.657 709.954 138.658 723.6 138.31 725.627C137.963 727.653 98.2968 760.497 72.5726 742.529C95.0323 748.985 135.005 729.024 133.396 723.741C127.178 708.072 113.151 675.626 106.788 671.198C105.979 670.635 105.109 670.018 104.193 669.369C96.1044 663.638 84.4575 655.385 80.0219 659.31C75.0838 663.68 57.3159 672.632 53.9525 664.753C50.5891 656.875 50.0419 644.785 53.801 638.127Z" fill="#181818"/>
<path d="M207.175 711.868C218.719 710.716 248.51 712.69 273.636 727.426C256.855 722.465 222.877 714.974 221.21 724.703C220.671 727.853 219.549 731.324 218.429 734.789C215.226 744.699 212.038 754.561 222.529 756.745C234.3 759.195 225.409 766.037 219.239 770.786C217.988 771.749 216.848 772.626 216.016 773.363C211.078 777.732 209.925 790.574 215.584 797.281C214.483 796.736 213.173 796.194 211.814 795.633C207.21 793.731 202.034 791.593 202.467 788.253C203.55 778.877 205.941 758.806 206.844 753.536C207.207 751.417 207.009 746.15 206.772 739.851C206.42 730.484 205.981 718.836 207.175 711.868Z" fill="#181818"/>
</svg>
